<?xml version="1.0" encoding="utf-8"?>
<!-- Generator: Adobe Illustrator 14.0.0, SVG Export Plug-In . SVG Version: 6.00 Build 43363)  -->
<!DOCTYPE svg PUBLIC "-//W3C//DTD SVG 1.1//EN" "http://www.w3.org/Graphics/SVG/1.1/DTD/svg11.dtd">
<svg version="1.1" id="Layer_1" xmlns="http://www.w3.org/2000/svg" xmlns:xlink="http://www.w3.org/1999/xlink" x="0px" y="0px"
	 width="612px" height="612px" viewBox="0 -1.75 612 612" enable-background="new 0 -1.75 612 612" xml:space="preserve">
<g>
	<path fill="#FFFFFF" d="M613.1,330.862c0-169.417-136.705-306.123-305.877-306.123C138.049,24.739,1.1,161.445,1.1,330.862l0,0
		V569.12c0,5.614,4.149,9.765,9.765,9.765h592.226c5.615,0,9.765-4.15,9.765-9.765L613.1,330.862L613.1,330.862z"/>
	<path fill="#68298C" d="M550.362,320.12c-10.497-26.12-99.355-6.346-224.344,60.053
		C204.693,445.107,132.923,520.54,144.152,542.999c11.229,23.923,135.973,7.079,236.305-48.579
		C516.674,419.72,563.789,351.855,550.362,320.12"/>
	<path fill="#FFFFFF" d="M258.399,507.847c-21.238,0.731-41.012-7.813-54.926-21.971c28.317-28.317,70.55-60.053,122.059-87.394
		c4.882,9.765,7.811,20.506,7.811,31.734C333.831,471.717,300.875,506.382,258.399,507.847"/>
	<path fill="#68298C" d="M66.768,563.505c5.614,5.615,10.497,9.765,24.655,14.891l3.418,1.465H11.597
		c-5.615,0-9.765-4.15-9.765-9.765V331.838l0,0c0-102.284,50.043-193.096,127.673-248.999l0,0l-3.418,4.15
		c-8.544,10.497-7.079,20.506-2.197,33.933c3.417,9.276-6.347,19.041-11.961,24.655c-21.971,24.656-44.43,57.124-46.626,114.247
		c-2.197,52.241,13.426,98.623,18.309,123.279c5.615,26.12,6.347,34.665,7.079,39.548c19.774-16.845,41.012-33.201,62.006-47.848
		c34.665-22.459,62.005-39.547,86.662-52.241c54.926-29.538,69.085-26.12,25.388-0.732c-42.964,25.389-85.196,54.194-113.514,80.314
		C38.45,501.499,55.538,551.543,66.768,563.505"/>
	<path fill="#68298C" d="M613.1,569.852c0,5.614-4.149,9.765-9.765,9.765H216.167c0,0,4.882-1.465,5.615-1.465
		c50.775-10.496,110.096-31.735,170.637-65.667c119.861-62.006,198.223-141.832,219.216-200.176l0.733-2.929c0,0,0,0.732,0,2.929
		c0,4.882,0.731,11.961,0.731,18.309V569.852"/>
	<path fill="#9E7FBA" d="M173.935,55.742L173.935,55.742c40.035-19.773,85.929-31.003,134.02-31.003
		c141.832,0,260.96,95.938,295.381,227.028c0,0-4.149-4.15-15.623-9.276c-7.813-3.417-18.309-6.347-33.2-9.276
		c-19.04-3.418-38.082-4.15-60.053-16.112c-38.814-21.238-91.055-112.782-174.055-136.706c-39.547-11.229-70.549-7.079-83.244-4.882
		c-7.08,1.465-20.506,2.929-25.388-3.417c-9.765-12.694-17.576-20.506-32.468-17.577C177.352,54.278,173.935,55.742,173.935,55.742"
		/>
</g>
</svg>
